<svg xmlns="http://www.w3.org/2000/svg" viewBox="0 0 28.92 28.92"><defs><style>.cls-1{fill:#4bc999;}</style></defs><title>Asset 11</title><g id="Layer_2" data-name="Layer 2"><g id="Layer_1-2" data-name="Layer 1"><path class="cls-1" d="M2,14.46A5.49,5.49,0,0,0,12,17.6V14.46a4.45,4.45,0,0,1-1,2.75l-.79-.61a3.49,3.49,0,0,0-4.89-4.9l-.61-.78A4.48,4.48,0,0,1,12,14.46V11.32A5.48,5.48,0,0,0,2,14.46Zm5.49.5A1.5,1.5,0,0,1,6,13.46a1.48,1.48,0,0,1,1-1.4v-.59H8v.59a1.47,1.47,0,0,1,1,1.4H8a.51.51,0,0,0-.5-.5.5.5,0,0,0-.5.5.5.5,0,0,0,.5.5,1.49,1.49,0,0,1,.5,2.9v.59H7v-.59a1.5,1.5,0,0,1-1-1.4H7a.49.49,0,0,0,.5.49.5.5,0,1,0,0-1Zm0,3a3.47,3.47,0,0,0,2.14-.74l.61.79a4.48,4.48,0,0,1-6.29-6.29l.78.61A3.49,3.49,0,0,0,7.48,18Z"/><path class="cls-1" d="M25.43,18a1.5,1.5,0,0,0,0-3A1.63,1.63,0,0,0,25,15a2.52,2.52,0,0,1,.45,1.42A2.47,2.47,0,0,1,25,17.87a1.33,1.33,0,0,0,.45.08Z"/><path class="cls-1" d="M24.43,16.45c0-.45-.11-.82-.25-.82s-.25.37-.25.82.11.83.25.83.25-.37.25-.83Z"/><path class="cls-1" d="M12,19.44v-.32A6.48,6.48,0,1,1,12,9.8V9.47A1.49,1.49,0,0,1,13.46,8H16V3H0V24.93H16v-4H13.46A1.5,1.5,0,0,1,12,19.44Z"/><path class="cls-1" d="M0,27.42a1.5,1.5,0,0,0,1.5,1.5h13A1.5,1.5,0,0,0,16,27.42V25.93H0Zm5-.5h6v1H5Z"/><path class="cls-1" d="M22.93,18a1.33,1.33,0,0,0,.45-.08,2.47,2.47,0,0,1-.45-1.42A2.52,2.52,0,0,1,23.38,15a1.63,1.63,0,0,0-.45-.07,1.5,1.5,0,0,0,0,3Z"/><path class="cls-1" d="M13,19.44a.5.5,0,0,0,.5.5h15a.5.5,0,0,0,.5-.5V12H13Zm10-5.48a2.42,2.42,0,0,1,1.25.35A2.42,2.42,0,0,1,25.43,14a2.5,2.5,0,1,1-1.25,4.64A2.49,2.49,0,1,1,22.93,14Zm-5,3.49h1v1H18Zm-2,0h1v1H16Zm-2,0h1v1H14Z"/><path class="cls-1" d="M16,1.5A1.5,1.5,0,0,0,14.46,0H1.5A1.5,1.5,0,0,0,0,1.5V2H16Z"/><path class="cls-1" d="M28.42,9h-15a.51.51,0,0,0-.5.5V11h16V9.47a.51.51,0,0,0-.5-.5Z"/><rect class="cls-1" x="18.95" y="21.94" width="4.99" height="1"/><rect class="cls-1" x="16.95" y="21.94" width="1" height="1"/><path class="cls-1" d="M19.94,24.93h7l-.48.72.83.55,1.51-2.27H19.94Z"/><rect class="cls-1" x="21.94" y="5.98" width="4.99" height="1"/><rect class="cls-1" x="27.92" y="5.98" width="1" height="1"/><path class="cls-1" d="M26.42,4H19.88l.48-.72-.83-.55L18,5h8.41Z"/></g></g></svg>