<svg xmlns="http://www.w3.org/2000/svg" viewBox="0 0 30.57 31.42"><defs><style>.cls-1{fill:#fff;}.cls-2{fill:#f79f1a;}.cls-3{fill:#059bbf;}.cls-4{fill:#202121;opacity:0.15;isolation:isolate;}.cls-5{fill:#87d0f0;}.cls-6{fill:#1e5d89;}.cls-7{fill:#ffbf41;}.cls-8{fill:#d1e3ef;}.cls-9{fill:#e3482c;}</style></defs><title>Asset 12</title><g id="Layer_2" data-name="Layer 2"><g id="Layer_1-2" data-name="Layer 1"><path class="cls-1" d="M25.75,13.22a1.35,1.35,0,0,1-.85,1.7l-19,6.39a1.35,1.35,0,0,1-1.7-.85L.07,8.15a1.34,1.34,0,0,1,.85-1.7l19-6.38a1.34,1.34,0,0,1,1.7.85l4.14,12.3Z"/><path class="cls-2" d="M7,12.79,5.63,10.53a.64.64,0,0,0-.81-.23l-2.31.78v.12A5,5,0,0,1,7,12.79Z"/><polygon class="cls-3" points="11.37 8.16 9.87 8.66 10.78 14.46 12.28 13.96 11.37 8.16"/><path class="cls-3" d="M8.75,15.14l.52-6.27L7.68,9.4l-.2,4.24-.35-.52a6.32,6.32,0,0,0-2.84-1.58l2.88,4.13Z"/><path class="cls-3" d="M16.89,10.42c-.21-.63-.77-1-1.76-1.07-.61-.08-1-.14-1.07-.4s.11-.56.7-.76A3.13,3.13,0,0,1,16,8l.15,0-.19-1.26A4.23,4.23,0,0,0,14.49,7c-1.48.5-2.27,1.6-1.92,2.67.25.79,1.16,1,1.81,1.05s.93.18,1,.42-.28.69-.71.83a3.35,3.35,0,0,1-1.51.19l-.22,0,.21,1.3a5.08,5.08,0,0,0,1.76-.27C16.48,12.64,17.26,11.56,16.89,10.42Z"/><path class="cls-3" d="M19,10.79l1.92-.64c.11.17.46.76.46.76l1.39-.47L19.7,5.36l-1.15.39a.78.78,0,0,0-.63.72l-.54,5.78L19,11.72S19,11,19,10.79Zm.14-3s0-.36,0-.59l.26.44.88,1.47-1.24.41C19.06,9.17,19.13,7.79,19.13,7.79Z"/><path class="cls-3" d="M19.91.07.92,6.45a1.34,1.34,0,0,0-.85,1.7L.51,9.47,22.05,2.24,21.61.92A1.34,1.34,0,0,0,19.91.07Z"/><path class="cls-2" d="M24.9,14.93l-19,6.38a1.35,1.35,0,0,1-1.7-.85l-.45-1.32L25.3,11.9l.45,1.32A1.36,1.36,0,0,1,24.9,14.93Z"/><path class="cls-4" d="M5.11,20.16,1,7.85a1.34,1.34,0,0,1,.84-1.7l-.9.3a1.34,1.34,0,0,0-.85,1.7L4.21,20.46a1.35,1.35,0,0,0,1.7.85l.9-.31A1.34,1.34,0,0,1,5.11,20.16Z"/><path class="cls-5" d="M7,16.07H29.39a1.18,1.18,0,0,1,1.18,1.18v13a1.18,1.18,0,0,1-1.18,1.18H7a1.18,1.18,0,0,1-1.18-1.18v-13A1.18,1.18,0,0,1,7,16.07Z"/><rect class="cls-6" x="8.13" y="24.33" width="4.13" height="1.18"/><rect class="cls-6" x="13.45" y="24.33" width="4.13" height="1.18"/><rect class="cls-6" x="18.76" y="24.33" width="4.13" height="1.18"/><rect class="cls-6" x="24.08" y="24.33" width="4.13" height="1.18"/><path class="cls-7" d="M24.09,19a2.07,2.07,0,1,1,0,2.93"/><rect class="cls-6" x="5.77" y="28.47" width="24.8" height="1.18"/><rect class="cls-8" x="8.13" y="17.84" width="1.18" height="1.18"/><rect class="cls-8" x="8.13" y="19.61" width="1.2" height="1.18"/><rect class="cls-8" x="9.9" y="17.84" width="1.18" height="2.95"/><rect class="cls-8" x="11.68" y="17.84" width="1.18" height="1.18"/><rect class="cls-8" x="11.68" y="19.61" width="1.18" height="1.18"/><circle class="cls-9" cx="22.6" cy="20.49" r="2.07"/></g></g></svg>