<svg xmlns="http://www.w3.org/2000/svg" viewBox="0 0 30.36 25.18"><defs><style>.cls-1{fill:#236852;}</style></defs><title>Asset 10</title><g id="Layer_2" data-name="Layer 2"><g id="Layer_1-2" data-name="Layer 1"><path class="cls-1" d="M26.8,0H3.56A3.57,3.57,0,0,0,0,3.56V21.62a3.57,3.57,0,0,0,3.56,3.56H26.8a3.57,3.57,0,0,0,3.56-3.56V3.56A3.57,3.57,0,0,0,26.8,0Zm2.61,21.62a2.61,2.61,0,0,1-2.61,2.61H3.56A2.61,2.61,0,0,1,1,21.62V5.6H29.41Zm0-17H1V3.56A2.61,2.61,0,0,1,3.56,1H26.8a2.61,2.61,0,0,1,2.61,2.61Z"/><path class="cls-1" d="M4.26,2.8a.8.8,0,0,1-.8.8.79.79,0,0,1-.79-.8A.79.79,0,0,1,3.46,2a.79.79,0,0,1,.8.79Z"/><path class="cls-1" d="M6.53,2.8a.8.8,0,1,1-1.6,0,.8.8,0,0,1,1.6,0Z"/><path class="cls-1" d="M8.8,2.8a.8.8,0,0,1-1.6,0,.8.8,0,0,1,1.6,0Z"/><path class="cls-1" d="M26.4,1.9l.57.64H25.46V3H27l-.61.69.36.31L27.83,2.8,26.76,1.58Z"/><path class="cls-1" d="M22.49,1.54H12.35a1.27,1.27,0,0,0,0,2.53H22.49a1.27,1.27,0,1,0,0-2.53Zm0,1.58H12.35a.32.32,0,0,1,0-.64H22.49a.32.32,0,1,1,0,.64Z"/><path class="cls-1" d="M15.15,7.4,8.23,12H22.07Zm0,1.15L19,11.1h-7.6Z"/><path class="cls-1" d="M15.92,10.06a.77.77,0,0,1-.77.77.77.77,0,1,1,.77-.77Z"/><rect class="cls-1" x="7.71" y="20.36" width="14.88" height="1.45"/><path class="cls-1" d="M15.31,18.57V18a1,1,0,0,0,.93-1c0-.52-.3-.83-.91-1.08s-.73-.36-.73-.67.17-.51.62-.51a1.4,1.4,0,0,1,.74.2l.15-.39a1.54,1.54,0,0,0-.76-.2v-.57H15v.59a1,1,0,0,0-.89.95c0,.51.37.78,1,1,.44.18.67.38.67.7s-.28.58-.7.58a1.5,1.5,0,0,1-.85-.26l-.14.4a1.74,1.74,0,0,0,.9.26v.59Z"/><rect class="cls-1" x="9.23" y="13.35" width="1.45" height="5.7"/><rect class="cls-1" x="11.48" y="13.35" width="1.45" height="5.7"/><rect class="cls-1" x="17.37" y="13.35" width="1.45" height="5.7"/><rect class="cls-1" x="19.62" y="13.35" width="1.45" height="5.7"/></g></g></svg>